# xmcd
#
# Track frame offsets: 
#        150
#        13859
#        29565
#        47616
#        61598
#
# Disc length: 1035 seconds
#
# Revision: 0
# Processed by: cddbd v1.5.2PL0 Copyright (c) Steve Scherf et al.
# Submitted via: ExactAudioCopy v1.1
#
DISCID=37040905
DTITLE=Gina Sicilia - Sunset Avenue
DYEAR=2016
DGENRE=Blues
TTITLE0=Abandoned
TTITLE1=Never Gonna End
TTITLE2=I Cried
TTITLE3=Tell Him
TTITLE4=Then Never Pay Me
EXTD=
EXTT0=
EXTT1=
EXTT2=
EXTT3=
EXTT4=
PLAYORDER=
